<?xml version="1.0" encoding="UTF-8" standalone="no"?>
<svg
   xmlns:dc="http://purl.org/dc/elements/1.1/"
   xmlns:cc="http://creativecommons.org/ns#"
   xmlns:rdf="http://www.w3.org/1999/02/22-rdf-syntax-ns#"
   xmlns:svg="http://www.w3.org/2000/svg"
   xmlns="http://www.w3.org/2000/svg"
   viewBox="0 0 2000 1010.6667"
   height="1010.6667"
   width="2000"
   id="svg869"
   version="1.1">
  <metadata
     id="metadata875">
    <rdf:RDF>
      <cc:Work
         rdf:about="">
        <dc:format>image/svg+xml</dc:format>
        <dc:type
           rdf:resource="http://purl.org/dc/dcmitype/StillImage" />
        <dc:title></dc:title>
      </cc:Work>
    </rdf:RDF>
  </metadata>
  <defs
     id="defs873" />
  <path
     id="path879"
     d="M 386.23479,628.39331 A 209.95328,209.95328 0 0 1 176.28151,838.34659 209.95328,209.95328 0 0 1 -33.671768,628.39331 209.95328,209.95328 0 0 1 176.28151,418.44003 209.95328,209.95328 0 0 1 386.23479,628.39331 Z"
     style="opacity:1;fill:#c2db88;fill-opacity:1;fill-rule:nonzero;stroke:none;stroke-width:3.56031489;stroke-linecap:butt;stroke-linejoin:miter;stroke-miterlimit:4;stroke-dasharray:none;stroke-opacity:1;paint-order:markers stroke fill" />
  <path
     id="circle881"
     d="M 2030.3244,117.37496 A 209.95328,209.95328 0 0 1 1820.3711,327.32824 209.95328,209.95328 0 0 1 1610.4178,117.37496 209.95328,209.95328 0 0 1 1820.3711,-92.578316 209.95328,209.95328 0 0 1 2030.3244,117.37496 Z"
     style="opacity:1;fill:#94ca72;fill-opacity:1;fill-rule:nonzero;stroke:none;stroke-width:3.56031489;stroke-linecap:butt;stroke-linejoin:miter;stroke-miterlimit:4;stroke-dasharray:none;stroke-opacity:1;paint-order:markers stroke fill" />
  <path
     id="circle883"
     d="M 1586.5337,934.4101 A 135.67735,135.67735 0 0 1 1450.8563,1070.0874 135.67735,135.67735 0 0 1 1315.179,934.4101 135.67735,135.67735 0 0 1 1450.8563,798.73274 135.67735,135.67735 0 0 1 1586.5337,934.4101 Z"
     style="opacity:1;fill:#a8d27c;fill-opacity:1;fill-rule:nonzero;stroke:none;stroke-width:2.30076957;stroke-linecap:butt;stroke-linejoin:miter;stroke-miterlimit:4;stroke-dasharray:none;stroke-opacity:1;paint-order:markers stroke fill" />
  <path
     id="circle885"
     d="M 99.034542,249.09087 A 88.140762,88.140762 0 0 1 10.89378,337.23163 88.140762,88.140762 0 0 1 -77.246983,249.09087 88.140762,88.140762 0 0 1 10.89378,160.9501 88.140762,88.140762 0 0 1 99.034542,249.09087 Z"
     style="opacity:1;fill:#53b453;fill-opacity:1;fill-rule:nonzero;stroke:none;stroke-width:1.4946605;stroke-linecap:butt;stroke-linejoin:miter;stroke-miterlimit:4;stroke-dasharray:none;stroke-opacity:1;paint-order:markers stroke fill" />
  <path
     id="circle887"
     d="m 402.08031,968.08179 a 88.140762,88.140762 0 0 1 -88.14077,88.14071 88.140762,88.140762 0 0 1 -88.14076,-88.14071 88.140762,88.140762 0 0 1 88.14076,-88.14077 88.140762,88.140762 0 0 1 88.14077,88.14077 z"
     style="opacity:1;fill:#53b453;fill-opacity:1;fill-rule:nonzero;stroke:none;stroke-width:1.4946605;stroke-linecap:butt;stroke-linejoin:miter;stroke-miterlimit:4;stroke-dasharray:none;stroke-opacity:1;paint-order:markers stroke fill" />
  <path
     id="circle891"
     d="m 1982.672,562.0401 a 88.140762,88.140762 0 0 1 -88.1407,88.14076 88.140762,88.140762 0 0 1 -88.1408,-88.14076 88.140762,88.140762 0 0 1 88.1408,-88.14076 88.140762,88.140762 0 0 1 88.1407,88.14076 z"
     style="opacity:1;fill:#ffe763;fill-opacity:1;fill-rule:nonzero;stroke:none;stroke-width:1.4946605;stroke-linecap:butt;stroke-linejoin:miter;stroke-miterlimit:4;stroke-dasharray:none;stroke-opacity:1;paint-order:markers stroke fill" />
  <path
     id="circle889"
     d="m 2085.6486,449.14069 a 88.140762,88.140762 0 0 1 -88.1408,88.14076 88.140762,88.140762 0 0 1 -88.1407,-88.14076 88.140762,88.140762 0 0 1 88.1407,-88.14077 88.140762,88.140762 0 0 1 88.1408,88.14077 z"
     style="opacity:1;fill:#53b453;fill-opacity:1;fill-rule:nonzero;stroke:none;stroke-width:1.4946605;stroke-linecap:butt;stroke-linejoin:miter;stroke-miterlimit:4;stroke-dasharray:none;stroke-opacity:1;paint-order:markers stroke fill" />
  <path
     id="circle893"
     d="m 192.12711,962.13971 a 88.140762,88.140762 0 0 1 -88.14076,88.14079 88.140762,88.140762 0 0 1 -88.140761,-88.14079 88.140762,88.140762 0 0 1 88.140761,-88.14076 88.140762,88.140762 0 0 1 88.14076,88.14076 z"
     style="opacity:1;fill:#ffe763;fill-opacity:1;fill-rule:nonzero;stroke:none;stroke-width:1.4946605;stroke-linecap:butt;stroke-linejoin:miter;stroke-miterlimit:4;stroke-dasharray:none;stroke-opacity:1;paint-order:markers stroke fill" />
</svg>
